<mxfile host="Electron" agent="Mozilla/5.0 (Macintosh; Intel Mac OS X 10_15_7) AppleWebKit/537.36 (KHTML, like Gecko) draw.io/25.0.2 Chrome/128.0.6613.186 Electron/32.2.5 Safari/537.36" version="25.0.2">
  <diagram name="第 1 页" id="SYX3p64jlWVgE2vbbrRf">
    <mxGraphModel dx="1026" dy="772" grid="1" gridSize="10" guides="1" tooltips="1" connect="1" arrows="1" fold="1" page="1" pageScale="1" pageWidth="827" pageHeight="1169" math="0" shadow="0">
      <root>
        <mxCell id="0" />
        <mxCell id="1" parent="0" />
        <mxCell id="XeAuwEDAyKsF_VomiVoV-1" value="" style="rounded=1;whiteSpace=wrap;html=1;sketch=1;curveFitting=1;jiggle=2;" vertex="1" parent="1">
          <mxGeometry x="110" y="250" width="656" height="290" as="geometry" />
        </mxCell>
        <mxCell id="XeAuwEDAyKsF_VomiVoV-2" value="&lt;font style=&quot;font-size: 24px;&quot;&gt;ECMAScript&lt;/font&gt;" style="rounded=1;whiteSpace=wrap;html=1;sketch=1;curveFitting=1;jiggle=2;" vertex="1" parent="1">
          <mxGeometry x="128" y="410" width="190" height="100" as="geometry" />
        </mxCell>
        <mxCell id="XeAuwEDAyKsF_VomiVoV-3" value="&lt;font style=&quot;font-size: 24px;&quot;&gt;DOM&lt;/font&gt;" style="rounded=1;whiteSpace=wrap;html=1;sketch=1;curveFitting=1;jiggle=2;" vertex="1" parent="1">
          <mxGeometry x="343" y="410" width="190" height="100" as="geometry" />
        </mxCell>
        <mxCell id="XeAuwEDAyKsF_VomiVoV-4" value="&lt;font style=&quot;font-size: 24px;&quot;&gt;BOM&lt;/font&gt;" style="rounded=1;whiteSpace=wrap;html=1;sketch=1;curveFitting=1;jiggle=2;" vertex="1" parent="1">
          <mxGeometry x="558" y="410" width="190" height="100" as="geometry" />
        </mxCell>
        <mxCell id="XeAuwEDAyKsF_VomiVoV-5" value="&lt;font style=&quot;font-size: 24px;&quot;&gt;JavaScript&lt;/font&gt;" style="text;html=1;align=center;verticalAlign=middle;whiteSpace=wrap;rounded=0;" vertex="1" parent="1">
          <mxGeometry x="377.5" y="300" width="125" height="30" as="geometry" />
        </mxCell>
      </root>
    </mxGraphModel>
  </diagram>
</mxfile>
